<?xml version="1.0" standalone="no"?>
<!DOCTYPE svg PUBLIC "-//W3C//DTD SVG 20010904//EN"
 "http://www.w3.org/TR/2001/REC-SVG-20010904/DTD/svg10.dtd">
<svg version="1.0" xmlns="http://www.w3.org/2000/svg"
 width="1080.000000pt" height="1080.000000pt" viewBox="0 0 1080.000000 1080.000000"
 preserveAspectRatio="xMidYMid meet">
<metadata>
Created by potrace 1.15, written by Peter Selinger 2001-2017
</metadata>
<g transform="translate(0.000000,1080.000000) scale(0.100000,-0.100000)"
fill="#000000" stroke="none">
<path d="M6480 8764 c-81 -7 -234 -34 -315 -56 -82 -22 -303 -126 -336 -159
-10 -10 -35 -30 -56 -44 -21 -13 -48 -32 -60 -41 l-23 -16 0 83 c0 46 -4 89
-8 95 -34 54 -455 112 -712 99 -144 -7 -319 -33 -385 -58 -144 -55 -181 -70
-227 -93 -28 -14 -58 -33 -66 -40 -8 -8 -31 -23 -52 -34 -52 -26 -146 -112
-222 -201 -43 -50 -138 -223 -163 -294 -18 -54 -64 -242 -71 -290 -26 -180
-29 -536 -5 -610 6 -16 19 -82 31 -145 22 -124 50 -222 98 -346 17 -44 45
-117 62 -164 18 -47 35 -89 40 -95 4 -5 28 -61 54 -124 25 -63 50 -117 54
-120 5 -3 28 -52 52 -109 23 -57 48 -109 54 -115 7 -7 34 -57 60 -112 27 -55
52 -102 55 -105 4 -3 29 -54 56 -115 27 -60 56 -123 66 -140 9 -16 34 -73 55
-125 20 -52 41 -100 46 -106 4 -6 33 -85 64 -175 60 -176 84 -296 84 -426 0
-116 -15 -177 -66 -259 -37 -61 -55 -78 -114 -114 -102 -62 -139 -72 -282 -78
-145 -5 -253 8 -353 43 -83 29 -98 30 -119 9 -14 -13 -16 -62 -16 -387 0 -205
4 -378 9 -385 7 -11 118 -38 345 -82 77 -16 520 -12 591 5 182 42 364 104 395
134 8 7 30 20 48 28 39 16 107 59 137 86 19 17 20 34 25 347 3 180 8 332 12
336 5 4 84 -6 178 -21 93 -16 172 -27 174 -24 3 2 12 37 20 77 33 156 30 332
-9 562 -18 108 -70 323 -86 352 -6 11 -33 85 -60 166 -26 80 -52 148 -57 151
-4 3 -25 53 -46 111 -21 58 -47 120 -57 139 -11 18 -31 61 -45 95 -14 33 -75
162 -136 286 -130 265 -177 365 -208 440 -13 30 -35 82 -51 115 -16 33 -47
116 -70 185 -22 69 -44 130 -49 135 -19 24 -43 181 -47 316 -5 126 -3 156 16
229 11 46 25 86 30 89 4 3 23 30 41 59 18 29 50 64 71 78 22 13 39 28 39 33 0
14 96 57 166 75 34 9 93 16 131 16 87 0 104 12 133 92 46 127 130 267 196 328
22 19 29 23 16 9 -12 -14 -22 -29 -22 -33 0 -8 -40 -67 -56 -81 -12 -10 -49
-92 -102 -225 -90 -226 -109 -694 -41 -1034 11 -55 25 -108 31 -119 6 -11 28
-77 50 -146 21 -69 47 -144 58 -166 10 -22 40 -94 65 -160 26 -66 51 -125 56
-131 5 -6 30 -60 55 -120 25 -60 49 -111 53 -114 5 -3 30 -52 56 -110 26 -58
51 -107 55 -110 11 -7 174 -345 189 -393 7 -20 18 -43 25 -50 12 -12 83 -189
133 -331 63 -179 89 -422 59 -550 -21 -88 -57 -155 -101 -185 -19 -13 -35 -28
-35 -33 0 -14 -107 -60 -175 -74 -125 -27 -339 -15 -512 30 -74 19 -68 19 -87
0 -14 -13 -16 -62 -16 -387 0 -205 4 -378 9 -386 11 -17 188 -53 371 -76 159
-21 445 -16 577 9 96 18 217 52 253 72 14 8 69 34 123 58 53 25 97 50 97 55 0
6 5 11 10 11 20 0 130 84 193 146 162 161 274 400 302 649 5 41 0 69 -30 155
-90 258 -164 623 -185 900 -12 161 -15 172 -89 349 -18 41 -54 121 -82 178
-27 58 -59 128 -70 156 -11 29 -26 59 -33 67 -8 8 -35 62 -60 120 -26 57 -51
107 -56 110 -5 3 -23 41 -41 85 -17 44 -46 109 -64 145 -18 36 -43 94 -55 130
-12 36 -35 92 -50 125 -32 69 -61 166 -85 280 -9 44 -21 96 -27 115 -11 41 -5
246 9 307 39 162 112 252 268 329 90 45 98 47 202 51 124 6 214 -6 316 -43 80
-28 90 -29 111 -8 14 13 16 62 16 377 0 199 -4 368 -9 375 -27 44 -587 104
-791 86z m521 -68 c75 -14 159 -30 187 -37 l52 -11 0 -345 0 -345 -27 6 c-16
3 -71 17 -122 31 -112 30 -280 34 -371 10 -145 -38 -290 -146 -345 -255 -44
-86 -65 -190 -65 -315 0 -289 82 -526 429 -1243 179 -369 272 -583 277 -637
24 -258 37 -370 44 -384 5 -9 16 -63 25 -121 22 -141 67 -344 77 -348 4 -2 8
-10 8 -17 0 -7 18 -71 39 -142 l39 -128 -13 -81 c-40 -246 -133 -433 -291
-585 -221 -211 -483 -321 -839 -351 -120 -10 -162 -9 -295 6 -85 9 -213 29
-285 44 l-130 27 -3 350 c-1 192 0 355 3 362 3 10 11 10 32 2 64 -25 205 -50
313 -55 300 -16 510 99 574 315 21 71 21 268 1 384 -32 185 -168 521 -383 947
-325 644 -471 1018 -517 1326 -44 295 -22 667 55 894 26 77 88 205 129 264
149 216 410 373 722 435 147 29 153 30 359 26 146 -3 214 -9 321 -29z m-1669
-32 c67 -9 165 -24 217 -35 51 -10 95 -19 97 -19 2 0 4 -35 4 -79 0 -77 -1
-79 -33 -104 -85 -64 -245 -316 -263 -413 -6 -33 -7 -34 -58 -34 -233 -2 -432
-119 -516 -305 -44 -96 -55 -157 -53 -300 3 -276 93 -536 415 -1195 323 -661
479 -1090 518 -1425 18 -157 9 -470 -14 -493 -3 -2 -85 10 -181 28 -97 17
-179 29 -183 25 -4 -3 -9 -162 -12 -353 l-5 -346 -96 -61 c-324 -205 -737
-254 -1247 -149 -40 8 -85 19 -98 24 l-24 10 0 355 c0 214 4 355 9 355 6 0 56
-12 113 -26 141 -35 343 -44 452 -20 148 33 271 117 324 223 49 95 66 260 42
413 -17 108 -68 275 -135 439 -84 209 -112 269 -277 596 -228 453 -344 723
-432 1006 -73 237 -81 293 -81 609 0 302 7 364 67 550 71 221 175 369 353 503
84 63 234 139 345 176 182 59 496 78 752 45z"/>
<path d="M8550 8720 c-119 -17 -202 -42 -325 -101 -68 -32 -129 -64 -136 -71
-8 -7 -41 -31 -74 -53 -74 -50 -265 -239 -327 -325 -26 -36 -58 -77 -70 -93
-85 -102 -308 -569 -308 -642 0 -6 -8 -26 -19 -45 -20 -39 -61 -196 -86 -335
-9 -49 -21 -110 -27 -135 -44 -200 -62 -457 -62 -875 0 -351 11 -584 39 -779
15 -105 66 -380 89 -480 24 -100 114 -369 151 -451 18 -38 49 -107 70 -152 21
-46 41 -83 44 -83 4 0 23 -33 44 -73 21 -40 49 -86 63 -102 13 -17 42 -54 64
-84 88 -122 293 -309 386 -353 24 -11 44 -24 44 -28 0 -8 125 -60 210 -86 30
-9 75 -24 100 -32 34 -12 96 -17 255 -20 199 -4 286 4 335 28 8 4 46 21 84 36
115 46 106 9 106 428 0 318 -2 367 -16 380 -20 21 -19 21 -110 -17 -72 -29
-88 -32 -184 -32 -101 1 -108 2 -190 41 -91 43 -196 134 -239 207 -13 20 -26
37 -30 37 -7 0 -42 66 -95 182 -38 82 -65 194 -102 428 -7 47 -17 108 -22 135
-26 134 -37 409 -37 905 0 495 9 708 36 840 5 25 18 95 29 155 25 133 69 316
80 330 5 6 19 40 33 76 25 67 65 150 76 159 3 3 19 25 36 50 40 62 140 157
200 190 28 15 74 33 104 40 74 17 237 8 321 -19 78 -25 75 -25 94 -5 14 13 16
60 16 357 0 188 -4 347 -8 353 -14 23 -141 75 -228 94 -103 23 -318 33 -414
20z m420 -68 c41 -11 101 -30 133 -42 l57 -21 0 -330 c0 -181 -2 -329 -5 -329
-3 0 -38 9 -78 20 -230 65 -406 23 -562 -134 -98 -99 -159 -200 -221 -366 -57
-155 -87 -281 -119 -500 -35 -245 -45 -374 -52 -690 -15 -697 57 -1386 177
-1673 80 -193 224 -367 351 -427 163 -76 319 -77 492 -5 16 7 17 -13 17 -344
l0 -350 -74 -36 c-111 -53 -194 -69 -376 -68 -185 0 -291 19 -451 82 -520 203
-906 837 -1044 1711 -47 301 -72 805 -55 1136 19 396 48 613 124 919 188 762
660 1340 1186 1454 127 28 385 24 500 -7z"/>
<path d="M1617 8676 c-16 -16 -17 -180 -17 -2655 0 -2301 2 -2640 15 -2651 11
-9 109 -11 407 -7 344 3 408 7 513 25 126 23 250 54 300 76 17 7 62 26 102 40
40 15 109 50 154 77 45 27 85 49 89 49 4 0 30 20 56 45 27 25 53 45 57 45 5 0
52 44 104 98 126 127 144 148 183 206 18 27 41 57 51 67 9 9 23 33 30 53 7 20
16 36 19 36 4 0 15 18 25 40 10 22 21 40 25 40 4 0 24 39 45 88 21 48 51 114
66 147 31 65 99 269 99 295 0 9 5 21 10 26 12 12 53 187 75 319 61 365 63 381
71 640 l7 230 -78 165 c-74 158 -181 411 -210 495 -65 192 -105 337 -119 432
-25 173 -30 360 -16 540 l12 160 -27 49 c-16 27 -34 54 -40 59 -7 6 -26 32
-43 58 -61 97 -187 227 -344 357 -69 57 -224 145 -350 200 -152 65 -288 100
-588 150 -30 6 -192 13 -360 16 -280 6 -307 5 -323 -10z m515 -37 c534 -36
900 -176 1199 -457 98 -92 231 -252 288 -346 l33 -56 -11 -125 c-6 -69 -11
-169 -11 -223 0 -118 17 -319 30 -347 4 -11 14 -51 21 -90 13 -76 62 -252 84
-300 8 -16 23 -55 34 -85 50 -142 75 -207 87 -225 7 -11 26 -55 43 -98 17 -43
47 -108 66 -145 70 -137 69 -133 62 -340 -17 -455 -88 -851 -219 -1200 -57
-155 -159 -364 -188 -390 -11 -9 -20 -23 -20 -31 0 -40 -172 -254 -298 -371
-203 -188 -418 -298 -717 -364 -185 -42 -257 -48 -627 -53 l-358 -5 0 2624 c0
1444 3 2628 7 2631 10 11 324 8 495 -4z"/>
<path d="M2570 6011 c0 -963 4 -1751 8 -1751 15 0 145 96 179 131 46 49 128
189 163 279 96 250 130 449 151 891 13 269 7 857 -11 1054 -26 295 -80 581
-139 735 -27 72 -101 201 -141 247 -45 51 -121 114 -169 141 l-41 23 0 -1750z
m148 1589 c29 -28 59 -65 68 -82 9 -17 24 -40 34 -50 23 -25 104 -241 124
-328 20 -90 44 -254 62 -417 8 -76 19 -174 24 -218 4 -44 8 -276 8 -515 0
-391 -5 -527 -23 -670 -3 -25 -12 -101 -21 -170 -15 -129 -60 -347 -75 -366
-5 -6 -20 -42 -33 -80 -50 -145 -102 -228 -198 -316 -34 -32 -65 -58 -70 -58
-4 0 -8 756 -8 1681 l0 1680 28 -19 c15 -11 51 -43 80 -72z"/>
<path d="M1652 3060 c-18 -11 -41 -34 -52 -52 -20 -32 -20 -48 -18 -475 l3
-441 25 -27 c14 -15 37 -33 52 -41 41 -21 7435 -21 7476 0 15 8 38 26 52 41
l25 27 3 441 c2 427 2 443 -18 475 -11 18 -34 41 -52 52 -33 20 -59 20 -3748
20 -3689 0 -3715 0 -3748 -20z m7484 -64 l34 -34 0 -411 c0 -441 -1 -451 -51
-477 -42 -21 -7396 -21 -7438 0 -50 26 -51 36 -51 475 0 402 0 409 21 435 12
15 31 32 43 36 11 5 1683 9 3715 9 l3693 1 34 -34z"/>
<path d="M1690 2970 c-19 -19 -20 -33 -20 -425 0 -392 1 -406 20 -425 20 -20
33 -20 3710 -20 3677 0 3690 0 3710 20 19 19 20 33 20 425 0 392 -1 406 -20
425 -20 20 -33 20 -3710 20 -3677 0 -3690 0 -3710 -20z m7388 -427 l-3 -388
-3675 0 -3675 0 -3 388 -2 387 3680 0 3680 0 -2 -387z"/>
<path d="M1936 2788 c-24 -33 -23 -409 0 -432 12 -12 38 -16 114 -16 54 0 111
5 126 10 19 8 30 8 38 0 14 -14 121 -13 134 3 5 6 11 21 13 31 6 32 24 29 40
-6 13 -31 17 -33 72 -36 33 -2 65 2 72 8 8 7 15 7 19 1 4 -6 61 -10 136 -10
138 1 160 7 160 50 0 30 23 22 40 -14 14 -30 19 -32 73 -35 64 -3 87 8 87 42
0 17 -51 268 -75 373 -12 50 -19 51 -261 52 -144 1 -232 -3 -240 -10 -8 -7
-14 -7 -19 1 -3 5 -39 10 -80 10 -85 0 -102 -10 -111 -71 -7 -42 -24 -64 -24
-30 0 30 -47 79 -88 91 -20 5 -76 10 -124 10 -78 0 -88 -2 -102 -22z m206 -28
c61 -17 68 -36 68 -186 0 -73 -3 -140 -6 -149 -12 -30 -60 -45 -149 -45 l-85
0 0 195 0 195 68 0 c37 0 84 -5 104 -10z m302 -7 c7 -25 76 -353 76 -364 0 -5
-18 -9 -40 -9 -37 0 -39 2 -46 35 -6 34 -7 35 -55 35 -47 0 -48 -1 -55 -35 -6
-33 -8 -35 -46 -35 -33 0 -38 3 -34 18 3 9 21 93 41 186 20 93 38 173 41 178
3 4 29 8 59 8 42 0 55 -4 59 -17z m314 -15 c3 -27 2 -28 -42 -28 l-46 0 0
-165 0 -165 -40 0 -40 0 0 165 0 165 -40 0 c-38 0 -40 2 -40 30 l0 31 123 -3
122 -3 3 -27z m182 28 c0 -2 18 -88 40 -191 22 -103 40 -189 40 -192 0 -2 -19
-3 -42 -1 -39 3 -43 6 -48 33 -5 27 -9 30 -49 33 -47 4 -61 -7 -61 -45 0 -20
-5 -23 -40 -23 -22 0 -40 2 -40 4 0 2 18 88 40 191 22 103 40 189 40 191 0 2
27 4 60 4 33 0 60 -2 60 -4z"/>
<path d="M2050 2574 l0 -135 38 3 37 3 3 124 c3 134 1 141 -50 141 l-28 0 0
-136z"/>
<path d="M3301 2792 c-41 -22 -71 -73 -71 -120 0 -39 13 -67 48 -104 25 -27
25 -28 5 -28 -61 0 -72 -103 -17 -161 51 -54 157 -63 231 -19 l34 20 30 -23
c40 -29 160 -32 201 -5 23 15 28 15 38 3 10 -12 58 -14 271 -14 244 0 261 1
276 19 16 19 17 19 30 0 12 -16 26 -20 77 -20 44 0 67 5 76 15 10 12 15 12 38
-3 18 -12 47 -17 97 -17 50 0 79 5 97 17 23 15 28 15 38 3 16 -19 259 -22 278
-3 16 16 16 100 0 116 -7 7 -36 12 -65 12 -29 0 -53 5 -53 10 0 6 16 10 35 10
22 0 43 8 55 20 12 12 20 33 20 55 0 22 -8 43 -20 55 -12 12 -33 20 -55 20
-19 0 -35 5 -35 10 0 6 24 10 53 10 29 0 58 5 65 12 16 16 16 100 0 116 -8 8
-53 12 -135 12 -110 0 -125 -2 -140 -20 -16 -18 -18 -19 -36 -3 -28 26 -144
30 -190 8 -33 -16 -38 -16 -52 -1 -21 21 -108 22 -128 1 -13 -13 -17 -13 -27
0 -18 22 -543 20 -565 -2 -14 -13 -19 -13 -52 2 -52 25 -163 18 -196 -13 l-24
-23 -38 25 c-48 33 -141 36 -194 8z m186 -56 c12 -15 23 -38 23 -52 0 -21 -4
-24 -39 -24 -33 0 -40 4 -43 23 -2 17 -10 22 -33 22 -26 0 -30 -4 -33 -31 -3
-29 3 -37 57 -78 75 -58 91 -80 91 -127 0 -69 -78 -112 -162 -88 -44 12 -78
51 -78 90 0 27 3 29 40 29 35 0 40 -3 40 -23 0 -43 44 -63 70 -31 21 25 1 59
-65 112 -76 60 -92 91 -76 143 16 53 50 70 125 66 50 -3 63 -8 83 -31z m253
19 c20 -10 33 -28 41 -54 16 -54 7 -71 -35 -71 -33 0 -35 2 -38 38 -3 35 -5
37 -38 37 l-35 0 -3 -132 -3 -132 26 -7 c34 -8 55 11 55 52 0 33 1 34 41 34
l42 0 -6 -45 c-6 -55 -28 -82 -79 -95 -50 -14 -106 -3 -135 26 -22 22 -23 30
-23 167 0 136 1 145 23 164 12 11 29 23 37 26 30 11 102 7 130 -8z m178 -182
l2 -193 -45 0 -45 0 0 188 c0 104 3 192 7 196 4 4 23 6 43 4 l35 -3 3 -192z
m272 167 l0 -30 -65 0 -65 0 0 -55 0 -55 55 0 c52 0 55 -1 55 -25 0 -24 -3
-25 -55 -25 l-55 0 0 -55 0 -55 65 0 65 0 0 -30 0 -30 -110 0 -110 0 0 188 c0
104 3 192 7 195 3 4 53 7 110 7 l103 0 0 -30z m189 -75 l36 -100 5 100 5 100
35 0 35 0 3 -192 2 -193 -44 0 -44 0 -49 133 -48 132 -3 -132 -3 -133 -34 0
-35 0 0 196 0 195 52 -3 51 -3 36 -100z m370 79 c26 -22 31 -33 31 -70 0 -44
0 -44 -35 -44 -31 0 -35 3 -35 28 0 40 -13 54 -46 50 l-29 -3 -3 -132 -3 -132
27 -7 c32 -8 54 15 54 58 0 25 3 28 35 28 35 0 35 0 35 -45 0 -35 -6 -52 -23
-69 -44 -44 -151 -42 -193 5 -16 18 -20 40 -22 137 -6 183 16 221 125 222 41
0 58 -5 82 -26z m301 -4 l0 -30 -71 0 -70 0 3 -52 3 -53 53 -3 c47 -3 52 -5
52 -27 0 -22 -5 -24 -52 -27 l-53 -3 -3 -52 -3 -53 70 0 71 0 0 -30 0 -30
-110 0 -110 0 0 195 0 195 110 0 110 0 0 -30z"/>
<path d="M5341 2792 c-41 -22 -71 -73 -71 -120 0 -39 13 -67 48 -104 25 -27
25 -28 5 -28 -39 0 -56 -28 -51 -82 9 -86 86 -138 186 -124 97 13 137 61 130
153 -4 46 -10 60 -43 93 l-38 39 34 3 c24 2 37 10 44 26 5 12 13 22 17 22 5 0
8 -69 8 -153 0 -106 4 -157 12 -165 16 -16 130 -16 146 0 8 8 12 59 12 165 0
129 2 153 15 153 13 0 15 -20 15 -120 0 -137 10 -169 63 -197 45 -24 153 -24
191 0 26 17 29 17 46 2 27 -24 239 -18 267 7 18 16 19 16 31 -2 11 -19 24 -20
200 -20 197 0 211 3 213 44 0 19 1 18 10 -4 6 -13 15 -28 22 -32 19 -12 122
-9 135 4 8 8 12 59 12 165 0 129 2 153 15 153 13 0 15 -23 15 -149 0 -177 2
-181 89 -181 31 0 62 5 69 12 8 8 12 59 12 165 0 145 10 192 25 122 4 -17 20
-45 36 -64 l29 -33 -30 -5 c-35 -7 -46 -37 -35 -94 15 -80 101 -126 205 -108
120 20 155 160 63 250 l-36 35 31 0 c31 0 62 22 62 43 0 35 -23 87 -50 112
-26 25 -40 30 -95 33 -35 2 -79 -1 -96 -7 -22 -8 -36 -8 -43 -1 -6 6 -86 10
-202 10 -156 0 -194 -3 -204 -15 -10 -12 -14 -12 -26 0 -11 11 -56 14 -214 14
-185 1 -201 -1 -212 -18 -11 -18 -12 -18 -53 0 -36 16 -67 19 -199 18 -118 -1
-160 -4 -170 -15 -12 -11 -16 -11 -27 2 -10 13 -42 14 -213 10 -111 -2 -208
-4 -216 -5 -8 0 -46 2 -85 5 -56 4 -77 1 -104 -14z m186 -56 c12 -15 23 -38
23 -52 0 -21 -4 -24 -39 -24 -33 0 -40 4 -43 23 -2 17 -10 22 -33 22 -26 0
-30 -4 -33 -31 -3 -29 3 -37 57 -78 75 -58 91 -80 91 -127 0 -69 -78 -112
-162 -88 -44 12 -78 51 -78 90 0 27 3 29 40 29 35 0 40 -3 40 -23 0 -43 44
-63 70 -31 21 25 1 59 -65 112 -76 60 -92 91 -76 143 16 53 50 70 125 66 50
-3 63 -8 83 -31z m293 4 c0 -28 -2 -30 -40 -30 l-40 0 0 -165 0 -165 -45 0
-45 0 0 165 0 165 -40 0 c-38 0 -40 2 -40 30 l0 30 125 0 125 0 0 -30z m110
-129 c0 -173 5 -189 55 -177 l25 6 0 165 0 165 40 0 40 0 0 -164 c0 -160 -1
-165 -25 -194 -41 -49 -142 -52 -190 -4 -25 24 -25 27 -25 193 l0 169 40 0 40
0 0 -159z m385 149 c68 -15 75 -33 75 -186 0 -126 -1 -134 -24 -161 -23 -27
-29 -28 -125 -31 l-101 -4 0 189 c0 104 3 193 7 196 9 10 121 8 168 -3z m345
-20 l0 -30 -70 0 -70 0 0 -55 0 -55 55 0 c52 0 55 -1 55 -25 0 -24 -3 -25 -55
-25 l-55 0 0 -55 0 -55 70 0 70 0 0 -30 0 -30 -110 0 -110 0 0 195 0 195 110
0 110 0 0 -30z m188 -82 l41 -113 0 113 1 112 35 0 35 0 0 -196 0 -195 -42 3
-43 3 -45 125 -45 125 -3 -127 -3 -128 -39 0 -40 0 0 188 c0 104 3 192 7 195
3 4 28 7 53 7 l47 0 41 -112z m392 82 c0 -28 -2 -30 -40 -30 l-40 0 0 -165 0
-165 -40 0 -40 0 0 165 0 165 -45 0 c-40 0 -45 2 -45 23 0 13 3 27 7 30 3 4
60 7 125 7 l118 0 0 -30z m229 4 c22 -18 31 -35 31 -55 0 -26 -3 -29 -33 -29
-27 0 -36 6 -45 26 -17 36 -66 31 -70 -7 -3 -25 30 -63 94 -109 57 -42 73
-122 31 -164 -29 -29 -85 -40 -135 -26 -49 13 -71 36 -74 80 -3 34 -2 35 34
38 33 3 37 1 40 -24 4 -34 31 -53 56 -38 31 20 27 53 -13 87 -109 94 -115 102
-115 150 0 38 5 49 31 71 24 21 41 26 84 26 43 0 60 -5 84 -26z"/>
<path d="M6230 2574 l0 -135 38 3 37 3 3 119 c3 130 -2 146 -49 146 l-29 0 0
-136z"/>
<path d="M7791 2792 c-63 -34 -72 -67 -69 -234 l3 -147 30 -31 c16 -16 47 -35
70 -41 48 -13 129 -5 160 15 20 13 25 13 35 1 10 -12 40 -15 141 -15 70 0 130
4 133 9 3 5 25 2 48 -6 55 -19 142 -11 178 15 26 20 27 20 38 1 11 -17 25 -19
115 -19 120 0 162 16 189 70 21 41 23 115 5 150 -10 18 -11 33 -4 53 15 46 3
124 -23 152 -35 37 -79 45 -247 44 -117 0 -154 -4 -163 -14 -10 -12 -14 -12
-27 0 -20 21 -116 20 -137 -1 -13 -13 -16 -42 -16 -165 l0 -149 -35 0 -35 0 0
149 c0 176 -2 181 -86 181 -42 0 -58 -5 -71 -20 -16 -18 -18 -19 -36 -2 -29
26 -152 29 -196 4z m178 -48 c26 -22 31 -33 31 -70 0 -44 0 -44 -35 -44 -31 0
-35 3 -35 28 0 40 -13 54 -46 50 l-29 -3 -3 -132 -3 -132 27 -7 c32 -8 54 15
54 58 0 25 3 28 35 28 35 0 35 0 35 -45 0 -35 -6 -52 -23 -69 -44 -44 -151
-42 -193 5 -16 18 -20 40 -22 137 -6 183 16 221 125 222 41 0 58 -5 82 -26z
m169 -141 l2 -163 65 0 65 0 0 -30 0 -30 -110 0 -110 0 0 188 c0 104 3 192 7
196 4 4 23 6 43 4 l35 -3 3 -162z m240 0 l2 -163 27 -6 c46 -12 53 12 53 183
l0 153 35 0 35 0 0 -170 c0 -165 -1 -172 -23 -194 -44 -44 -151 -42 -193 5
-17 18 -19 40 -22 176 -2 85 -1 161 2 170 4 10 17 13 43 11 l38 -3 3 -162z
m392 154 c60 -21 81 -106 37 -151 l-23 -23 22 -16 c27 -20 38 -66 29 -113 -10
-55 -50 -74 -157 -74 l-88 0 0 195 0 195 73 -1 c39 0 88 -5 107 -12z"/>
</g>
</svg>
